# xmcd
#
# Track frame offsets: 
#        150
#        16579
#        30420
#        46950
#        61103
#        78289
#        91754
#        112592
#        126402
#        139121
#        153764
#        165764
#        179337
#        193115
#        210902
#        224450
#        239842
#        259896
#        276434
#
# Disc length: 3889 seconds
#
# Revision: 0
# Processed by: cddbd v1.5.2PL0 Copyright (c) Steve Scherf et al.
# Submitted via: ExactAudioCopy v1.1
#
DISCID=f40f2f13
DTITLE=Various Artist - MNM Big Hits 2018 Vol. 2 - CD1
DYEAR=2018
DGENRE=Top 40
TTITLE0=Bløf Feat. Geike Arnaert - Zoutelande
TTITLE1=Zedd, Maren Morris, Grey - The Middle
TTITLE2=Post Malone Feat. Ty Dolla $Ign - Psycho
TTITLE3=Bruno Mars - Finesse
TTITLE4=Imagine Dragons - Next To Me
TTITLE5=Bvdkult and OT - Let You Go
TTITLE6=Justin Timberlake Feat. Chris Stapleton - Say Something
TTITLE7=Nielson - Diamant
TTITLE8=Ronnie Flex Feat. Famke Louise - Fan
TTITLE9=Selena Gomez X Marshmello - Wolves
TTITLE10=Gers Pardoel - Lila Lakens Van Satijn
TTITLE11=Like Mike - Memories
TTITLE12=Bizzey Feat. Kraantje Pappie, Chivv and Yung Felix - Ja!
TTITLE13=Sam Smith - Pray
TTITLE14=Marshmello Feat. Khalid - Silence
TTITLE15=Angèle - Je Veux Tes Yeux
TTITLE16=G-Eazy and Halsey - Him and I
TTITLE17=Blackwave. Feat. David Ngyah - Elusive
TTITLE18=Troye Sivan - My My My!
EXTD=
EXTT0=
EXTT1=
EXTT2=
EXTT3=
EXTT4=
EXTT5=
EXTT6=
EXTT7=
EXTT8=
EXTT9=
EXTT10=
EXTT11=
EXTT12=
EXTT13=
EXTT14=
EXTT15=
EXTT16=
EXTT17=
EXTT18=
PLAYORDER=
